<svg id="CLOSEYYY" xmlns="http://www.w3.org/2000/svg" width="17.322" height="17.322" viewBox="0 0 17.322 17.322">
  <path id="Path_31" data-name="Path 31" d="M2.471,2.708l.109-.127a1.13,1.13,0,0,1,1.471-.109l.127.109,6.732,6.732,6.732-6.732a1.13,1.13,0,1,1,1.6,1.6l-6.732,6.732,6.732,6.732a1.13,1.13,0,0,1,.109,1.471l-.109.127a1.13,1.13,0,0,1-1.471.109l-.127-.109-6.732-6.732L4.178,19.241a1.13,1.13,0,1,1-1.6-1.6l6.732-6.732L2.581,4.178a1.13,1.13,0,0,1-.109-1.471l.109-.127Z" transform="translate(-2.25 -2.25)" fill="#212121"/>
</svg>
