<svg id="insta-icon" xmlns="http://www.w3.org/2000/svg" width="40" height="40" viewBox="0 0 40 40">
  <rect id="Rectangle_7" data-name="Rectangle 7" width="40" height="40" fill="none"/>
  <path id="Path_2" data-name="Path 2" d="M125.136,202.853a9.758,9.758,0,0,0-9.753-9.753H98.853a9.758,9.758,0,0,0-9.753,9.753v16.53a9.758,9.758,0,0,0,9.753,9.753h16.53a9.758,9.758,0,0,0,9.753-9.753Zm-2.975,0v16.53a6.78,6.78,0,0,1-6.777,6.777H98.853a6.78,6.78,0,0,1-6.777-6.777v-16.53a6.78,6.78,0,0,1,6.777-6.777h16.53A6.78,6.78,0,0,1,122.161,202.853Zm-6.959,7.006a8.115,8.115,0,0,0-6.824-6.824,7.939,7.939,0,0,0-1.189-.088,8.1,8.1,0,1,0,8.1,8.1A7.94,7.94,0,0,0,115.2,209.858Zm-2.942.436a5.216,5.216,0,0,1,.055.752,5.124,5.124,0,1,1-5.124-5.124,5.214,5.214,0,0,1,.752.055A5.138,5.138,0,0,1,112.259,210.295Zm3.951-9.756a1.488,1.488,0,1,1-1.488,1.488A1.488,1.488,0,0,1,116.21,200.539Z" transform="translate(-87.282 -191.282)" fill="#fff" fill-rule="evenodd"/>
</svg>
